<svg width="50" height="50" viewBox="0 0 34 36" fill="none" xmlns="http://www.w3.org/2000/svg">
<path d="M0 35.5144C1.1884 33.4119 2.53678 31.2865 4.0451 29.1383C5.55344 26.99 7.13032 24.8875 8.77577 22.8307C10.4212 20.7282 12.021 18.6942 13.575 16.7288L0.685635 0H6.99321L17.0716 12.8209L26.3273 0H32.2921L20.4311 16.2489C21.9851 18.26 23.5392 20.3168 25.0932 22.4193C26.6473 24.5218 28.1556 26.6701 29.6182 28.864C31.1265 31.058 32.4749 33.2747 33.6633 35.5144H27.4243C26.8301 34.2346 25.9616 32.7263 24.819 30.9894C23.6763 29.2068 22.4193 27.3785 21.0481 25.5045C19.6769 23.5848 18.3286 21.8251 17.0031 20.2253C15.6775 21.7794 14.2606 23.5163 12.7523 25.436C11.2897 27.3557 9.91846 29.2068 8.63866 30.9894C7.35886 32.772 6.37616 34.2803 5.69055 35.5144H0Z" fill="white"/>
</svg>
