<?xml version="1.0" encoding="UTF-8" standalone="no"?>
<svg
   version="1.1"
   width="500"
   height="500"
   style="clip-rule:evenodd;fill-rule:evenodd;image-rendering:optimizeQuality;shape-rendering:geometricPrecision;text-rendering:geometricPrecision"
   id="svg143"
   sodipodi:docname="foxus.svg"
   xml:space="preserve"
   inkscape:version="1.4 (86a8ad7, 2024-10-11)"
   xmlns:inkscape="http://www.inkscape.org/namespaces/inkscape"
   xmlns:sodipodi="http://sodipodi.sourceforge.net/DTD/sodipodi-0.dtd"
   xmlns:xlink="http://www.w3.org/1999/xlink"
   xmlns="http://www.w3.org/2000/svg"
   xmlns:svg="http://www.w3.org/2000/svg"><defs
     id="defs143"><linearGradient
       id="linearGradient32"
       inkscape:collect="always"><stop
         style="stop-color:#b85ae9;stop-opacity:1;"
         offset="0.30241936"
         id="stop32" /><stop
         style="stop-color:#8730cb;stop-opacity:1;"
         offset="1"
         id="stop33" /></linearGradient><linearGradient
       id="linearGradient30"
       inkscape:collect="always"><stop
         style="stop-color:#b85ae9;stop-opacity:1;"
         offset="0.73991936"
         id="stop30" /><stop
         style="stop-color:#8730cb;stop-opacity:1;"
         offset="1"
         id="stop31" /></linearGradient><linearGradient
       id="linearGradient10"
       inkscape:collect="always"><stop
         style="stop-color:#d5cfe9;stop-opacity:1;"
         offset="0.82258064"
         id="stop11" /><stop
         style="stop-color:#bea0dc;stop-opacity:1;"
         offset="1"
         id="stop12" /></linearGradient><linearGradient
       id="linearGradient147"
       inkscape:collect="always"><stop
         style="stop-color:#cd78f7;stop-opacity:1;"
         offset="0"
         id="stop147" /><stop
         style="stop-color:#ae64f1;stop-opacity:1;"
         offset="1"
         id="stop148" /></linearGradient><radialGradient
       inkscape:collect="always"
       xlink:href="#linearGradient147"
       id="radialGradient148"
       cx="338.14163"
       cy="724.74628"
       fx="338.14163"
       fy="724.74628"
       r="30.329327"
       gradientTransform="matrix(1,0,0,1.9709478,0,-703.6908)"
       gradientUnits="userSpaceOnUse" /><radialGradient
       inkscape:collect="always"
       xlink:href="#linearGradient10"
       id="radialGradient12"
       cx="512.99219"
       cy="533.5791"
       fx="512.99219"
       fy="533.5791"
       r="247.19531"
       gradientTransform="matrix(1,0,0,0.3353837,0,354.62537)"
       gradientUnits="userSpaceOnUse" /><radialGradient
       inkscape:collect="always"
       xlink:href="#linearGradient30"
       id="radialGradient32"
       cx="358.44791"
       cy="327.27444"
       fx="358.44791"
       fy="327.27444"
       r="75.141144"
       gradientTransform="matrix(1,0,0,1.7895162,0,-258.38846)"
       gradientUnits="userSpaceOnUse" /><radialGradient
       inkscape:collect="always"
       xlink:href="#linearGradient32"
       id="radialGradient33"
       cx="640.35248"
       cy="267.31949"
       fx="640.35248"
       fy="267.31949"
       r="44.195148"
       gradientTransform="matrix(1,0,0,1.5577156,0,-149.08827)"
       gradientUnits="userSpaceOnUse" /></defs><sodipodi:namedview
     id="namedview143"
     pagecolor="#505050"
     bordercolor="#eeeeee"
     borderopacity="1"
     inkscape:showpageshadow="0"
     inkscape:pageopacity="0"
     inkscape:pagecheckerboard="0"
     inkscape:deskcolor="#505050"
     inkscape:zoom="1.4142136"
     inkscape:cx="59.043413"
     inkscape:cy="242.89117"
     inkscape:window-width="1920"
     inkscape:window-height="1057"
     inkscape:window-x="-8"
     inkscape:window-y="-8"
     inkscape:window-maximized="1"
     inkscape:current-layer="svg143" /><g
     id="g5"
     transform="matrix(0.95057039,0,0,0.95057039,59.885926,2.8553339e-6)"><ellipse
       style="clip-rule:evenodd;fill:#000000;fill-opacity:0.619608;fill-rule:evenodd;stroke:none;stroke-width:2.82046;image-rendering:optimizeQuality;shape-rendering:geometricPrecision;text-rendering:geometricPrecision"
       id="path5"
       cx="200"
       cy="494.51456"
       rx="190.49998"
       ry="31.485415" /><g
       id="g33"
       transform="matrix(0.67868512,0,0,0.67868512,-147.48099,-102.7708)"><path
         style="clip-rule:evenodd;fill:#000000;fill-opacity:1;fill-rule:evenodd;stroke:#ffffff;stroke-width:3.90362;stroke-dasharray:none;stroke-opacity:1;image-rendering:optimizeQuality;shape-rendering:geometricPrecision;text-rendering:geometricPrecision"
         d="m 226.52773,468.11581 c 25.21446,-8.65787 46.19287,-20.79328 67.66128,-74.37879 -21.8312,-65.71432 -21.69045,-140.3932 39.37701,-239.93017 44.1799,16.12674 106.93738,62.46626 142.96816,111.1373 18.62769,-3.44401 38.00354,-4.26946 58.62831,-0.7237 31.03969,-40.1116 73.75919,-82.21532 131.5625,-108.96875 53.79623,87.57745 62.02505,155.03141 48.40625,213.64062 24.03655,39.61052 53.12727,73.42325 82.34103,82.94899 -23.93705,62.30414 -69.05017,126.90456 -144.91915,162.75414 17.71892,89.18318 61.86496,73.51267 67.34732,176.15993 -15.36105,-7.01018 -30.66926,-14.1789 -46.67545,-19.25368 -4.68468,15.56907 -10.1755,30.88478 -20.62123,44.64323 18.68315,5.72122 30.36668,10.25501 43.2853,15.16927 -90.4063,81.78215 -251.57416,62.01908 -349.55367,6.70165 C 266.84736,793.13837 222.64592,679.52611 338.22851,597.00812 274.80053,554.41102 243.45269,510.29918 226.52773,468.11581 Z"
         id="path143"
         sodipodi:nodetypes="cccccccccccccscc" /><path
         style="fill:url(#radialGradient148);fill-opacity:1;stroke:none;stroke-width:2;stroke-dasharray:none;stroke-opacity:1"
         d="m 321.73437,664.96875 c -18.99551,42.92509 3.39148,96.14745 46.73658,119.55504 -43.91547,-8.82417 -82.15311,-58.82417 -46.73658,-119.55504 z"
         id="path144"
         sodipodi:nodetypes="ccc" /><path
         style="fill:#322948;fill-opacity:1;stroke:none;stroke-width:2;stroke-dasharray:none;stroke-opacity:1"
         d="m 330.46875,729.64844 c 7.88904,6.93378 20.46831,18.7833 46.625,17.38281 l 10.14062,12.60937 c -26.73216,0.52132 -50.54602,-11.15588 -56.76562,-29.99218 z"
         id="path145"
         sodipodi:nodetypes="cccc" /><path
         style="fill:#f4faff;fill-opacity:1;stroke:none;stroke-width:2;stroke-dasharray:none;stroke-opacity:1"
         d="M 470.49118,851.55544 C 507.48529,865.62854 572.10356,868.76839 634.8125,841.625 603.25718,809.12904 602.74469,796.10945 581.98412,768.94191 536.82663,709.84825 461.86127,689.2819 419.86201,686.00385 391.96375,683.82638 368.1902,672.67722 360.2709,654.09587 364.58305,704.51993 411.04788,718.87896 483,735.5 l 1.84375,16.09375 c -5.15777,2.48536 -7.23674,4.86068 -8.60733,6.40262 13.58896,10.21804 27.1435,20.35001 41.18897,31.70932 -17.78526,2.2192 -34.20893,6.54269 -50.17144,11.57887 15.64701,9.71 33.23709,18.15546 56.26934,23.05919 -19.02393,13.52322 -31.12624,20.52353 -53.03211,27.21169 z"
         id="path146"
         sodipodi:nodetypes="ccsscccccccc" /><path
         id="path148"
         style="fill:#bc53f8;fill-opacity:1;stroke:none;stroke-width:2;stroke-dasharray:none;stroke-opacity:1"
         d="m 475,732 c -0.57687,0.36874 -1.13016,0.77763 -1.69531,1.16602 3.27123,0.77611 6.30946,1.55184 9.69531,2.33398 l 1.84375,16.09375 c -5.15777,2.48536 -7.23683,4.8604 -8.60742,6.40234 13.58896,10.21804 27.14398,20.34968 41.18945,31.70899 -17.78526,2.2192 -34.20936,6.5439 -50.17187,11.58008 15.64701,9.71 33.23728,18.15486 56.26953,23.05859 -19.02393,13.52322 -31.12734,20.52278 -53.03321,27.21094 35.38926,13.46259 96.05655,16.84661 156.15039,-6.64063 C 574.54084,804.689 575.59245,760.79162 513.01758,736.49609 Z" /><path
         style="clip-rule:evenodd;fill:#322948;fill-opacity:1;fill-rule:evenodd;stroke:none;stroke-width:2;stroke-dasharray:none;stroke-opacity:1;image-rendering:optimizeQuality;shape-rendering:geometricPrecision;text-rendering:geometricPrecision"
         d="m 352.47063,611.51478 c -1.09485,13.33464 -0.57829,28.37141 7.80217,42.5687 8.40667,63.96151 76.21264,30.39127 163.12985,80.30215 l -40.07307,17.97598 c -7.16384,-6.19344 -16.2217,-15.33076 -29.03283,-17.91824 -87.78774,-17.73061 -136.91268,-56.171 -101.82612,-122.92859 z"
         id="path147"
         sodipodi:nodetypes="ccccsc" /><path
         id="path150"
         style="fill:#812dcb;fill-opacity:1;stroke:none;stroke-width:2;stroke-dasharray:none;stroke-opacity:1"
         d="m 514.88086,830.31445 c -14.47424,9.73505 -25.9944,15.62362 -44.39063,21.24024 32.1153,12.21713 85.04863,16.13015 139.47852,-0.80274 -37.16822,-0.81122 -70.31971,-8.00922 -95.08789,-20.4375 z" /><path
         style="fill:#fdfdff;fill-opacity:1;stroke-width:2"
         d="m 488.87043,643.72682 c 52.91307,6.13439 110.20348,-6.80813 130.9577,-16.06275 14.5137,60.83483 48.33376,79.92137 60.42187,118.67968 -13.22954,-5.63571 -25.09799,-10.21279 -35.32812,-13.51562 0.84728,22.24778 1.18533,44.89154 -16.04688,69.53906 -11.32406,-51.03943 -37.9568,-78.35106 -69.49583,-101.67477 -25.52641,-18.87726 -47.72265,-20.61866 -70.50874,-56.9656 z"
         id="path1"
         sodipodi:nodetypes="cccccsc" /><path
         id="path2"
         style="fill:#d5cfe9;fill-opacity:1;stroke-width:2"
         d="m 619.82812,627.66406 c -20.75422,9.25462 -78.04396,22.19689 -130.95703,16.0625 16.66269,26.57928 33.02119,34.66495 50.58594,44.4668 -5.60683,-7.95372 -19.34497,-18.76546 -26.7168,-32.87109 52.30556,16.22591 78.19004,3.6498 107.83399,-24.7168 -0.24928,-0.97939 -0.5071,-1.93965 -0.7461,-2.94141 z m -67.55078,68.15625 c 2.34269,1.51394 4.70334,3.09952 7.10157,4.87305 31.53903,23.32371 58.17203,50.6344 69.49609,101.67383 2.3736,-3.395 4.38525,-6.74911 6.13672,-10.07227 -9.33742,-40.1598 -49.02637,-88.35982 -82.73438,-96.47461 z" /><path
         style="fill:#332e42;fill-opacity:1;fill-rule:evenodd;stroke-width:2"
         d="m 308.65234,475.88281 c 37.35101,-31.56776 42.72263,-83.42243 127.1906,-81.75917 75.10176,9.6925 96.56908,85.98856 162.25081,109.34511 0.55919,2.21655 1.27046,4.71694 1.94341,7.2529 -107.06444,8.96911 -202.97035,-5.17586 -291.38482,-34.83884 z"
         id="path12"
         sodipodi:nodetypes="ccccc" /><path
         style="fill:#332e42;fill-opacity:1;fill-rule:evenodd;stroke-width:2"
         d="M 733.68359,442.89062 C 688.40019,402.84006 701.69758,358.26375 633.75,354.875 c -66.16533,1.70693 -56.06481,105.10501 -5.0625,130 l 25.38627,13.63528 c 26.70478,-18.3577 75.40895,-12.88272 79.60982,-55.61966 z"
         id="path13"
         sodipodi:nodetypes="ccccc" /><path
         style="clip-rule:evenodd;fill:#fdfdff;fill-opacity:1;fill-rule:evenodd;stroke-width:2;image-rendering:optimizeQuality;shape-rendering:geometricPrecision;text-rendering:geometricPrecision"
         d="m 265.79688,481.73438 c 97.58372,174.00881 399.97356,190.82447 494.39062,-16.5 -10.90877,-7.28852 -19.02467,-14.34249 -26.49792,-22.34246 -24.96925,20.91864 -51.05743,31.82468 -82.00859,39.46782 -4.45998,1.10136 7.33371,17.8372 3.91674,21.48188 -8.36482,8.92225 -30.49576,8.04276 -42.20512,6.88062 -177.7618,-17.64257 -225.34571,-15.0673 -304.7405,-34.83937 -11.43437,5.25947 -22.06866,7.0675 -42.85523,5.85151 z"
         id="path3"
         sodipodi:nodetypes="cccssscc" /><path
         id="path4"
         style="clip-rule:evenodd;fill:url(#radialGradient12);fill-opacity:1;fill-rule:evenodd;stroke-width:2;image-rendering:optimizeQuality;shape-rendering:geometricPrecision;text-rendering:geometricPrecision"
         d="m 741.59961,450.67383 -0.0684,0.0762 c -70.36196,223.25983 -348.13269,150.84243 -415.43359,63.32812 9.30915,3.92845 20.45115,5.56552 32.41796,6.17188 -20.5822,-10.21487 -40.47158,-21.90776 -56.55468,-41.7207 -9.28947,3.1641 -19.42926,4.18404 -36.16406,3.20508 97.58371,174.00881 399.97356,190.82447 494.39062,-16.5 -7.2358,-4.83449 -13.18214,-9.58794 -18.58789,-14.56055 z" /><circle
         style="fill:#000000;fill-opacity:1;fill-rule:evenodd;stroke-width:2.14285"
         id="path14"
         cx="434.69388"
         cy="454.3161"
         r="47.729702" /><circle
         style="clip-rule:evenodd;fill:#ffffff;fill-opacity:1;fill-rule:evenodd;stroke-width:2.54545;image-rendering:optimizeQuality;shape-rendering:geometricPrecision;text-rendering:geometricPrecision"
         id="path15-4"
         cx="440.22485"
         cy="433.34619"
         r="19.798988" /><circle
         style="clip-rule:evenodd;fill:#ffffff;fill-opacity:1;fill-rule:evenodd;stroke-width:2;image-rendering:optimizeQuality;shape-rendering:geometricPrecision;text-rendering:geometricPrecision"
         id="path16-8"
         cx="426.52478"
         cy="466.66864"
         r="8.3085051" /><circle
         style="clip-rule:evenodd;fill:#000000;fill-opacity:1;fill-rule:evenodd;stroke-width:2.14285;image-rendering:optimizeQuality;shape-rendering:geometricPrecision;text-rendering:geometricPrecision"
         id="path14-8"
         cx="661.22968"
         cy="425.72971"
         r="47.729702" /><circle
         style="clip-rule:evenodd;fill:#ffffff;fill-opacity:1;fill-rule:evenodd;stroke-width:2.54545;image-rendering:optimizeQuality;shape-rendering:geometricPrecision;text-rendering:geometricPrecision"
         id="path15-4-2"
         cx="666.76068"
         cy="404.7598"
         r="19.798988" /><circle
         style="clip-rule:evenodd;fill:#ffffff;fill-opacity:1;fill-rule:evenodd;stroke-width:2;image-rendering:optimizeQuality;shape-rendering:geometricPrecision;text-rendering:geometricPrecision"
         id="path16-8-4"
         cx="653.06061"
         cy="438.08224"
         r="8.3085051" /><path
         style="fill:#000000;fill-opacity:1;fill-rule:evenodd;stroke-width:2"
         d="m 592.73226,562.50344 c 18.75814,7.61179 34.50747,4.69278 48.08326,-5.83363 5.60964,-7.33509 18.37158,1.53052 11.53468,9.1482 -12.72045,15.12513 -50.35766,23.93399 -70.04777,7.5572 -6.93393,-5.16131 -1.98159,-19.79434 10.42983,-10.87177 z"
         id="path18"
         sodipodi:nodetypes="ccccc" /><path
         style="fill:#000000;fill-opacity:1;fill-rule:evenodd;stroke-width:2"
         d="m 651.31207,470.50808 24.74262,30.67942 c -9.84455,58.06926 -72.69001,52.56427 -77.25782,2.71875 24.87448,-8.82363 26.12132,-9.64436 38.04117,-14.08013 l 10.51822,3.8228 -1.59099,-14.14214 c -9.38064,-10.82682 -16.79086,-21.98204 -22.17152,-33.47553 z"
         id="path19"
         sodipodi:nodetypes="cccccccc" /><path
         id="path20"
         style="fill:#ffffff;fill-opacity:1;fill-rule:evenodd;stroke-width:2"
         d="M 610.0957,364.25 C 584.50331,402.85017 620.92106,464.37677 646,493.65625 l -26.13281,3.68359 c 10.33154,4.31333 25.87197,7.35249 43.24414,2.23047 C 634.59514,475.85903 589.56043,396.95614 619.40625,364.25 Z" /><path
         id="path21"
         style="fill:#ffffff;fill-opacity:1;fill-rule:evenodd;stroke-width:2"
         d="m 632.9043,354.91797 c -7.26135,0.28668 -13.58648,1.81272 -19.02539,4.33398 -32.62774,38.07424 5.9292,103.82546 32.12109,134.4043 l -0.76172,0.10742 8.83594,4.7461 c 1.50134,-1.03208 3.08039,-1.97883 4.70898,-2.87305 -31.90901,-30.81727 -77.47852,-118.67995 -25.8789,-140.71875 z" /><path
         style="fill:#332e42;fill-opacity:1;fill-rule:evenodd;stroke-width:2"
         d="M 371.75,380 C 426.50214,333.34276 494.01087,358.7665 522.86127,414.74022 492.04512,381.43245 437.94235,352.24993 371.75,380 Z"
         id="path22"
         sodipodi:nodetypes="ccc" /><path
         style="fill:#332e42;fill-opacity:1;fill-rule:evenodd;stroke-width:2"
         d="m 546.92187,345.07812 c 7.51059,-27.51225 42.31259,-38.14154 95.03125,-12.6875 -85.76209,-69.24243 -219.5416,-45.26685 -260.84466,0.85555 31.40917,-21.3546 113.16306,-48.08159 165.81341,11.83195 z"
         id="path23"
         sodipodi:nodetypes="cccc" /><path
         style="fill:url(#radialGradient33);fill-opacity:1;fill-rule:evenodd;stroke-width:2"
         d="m 680.4135,336.16298 c 12.66868,-42.73885 -6.04159,-107.04086 -25.56633,-137.68695 -33.01387,30.13427 -53.04386,59.86801 -58.68986,83.8253 l 7.038,3.27679 L 651.5,266 c 17.5443,18.27171 22.19218,44.88817 28.9135,70.16298 z"
         id="path26"
         sodipodi:nodetypes="cccccc" /><path
         style="clip-rule:evenodd;fill:#fdfef9;fill-opacity:1;fill-rule:evenodd;stroke-width:2;image-rendering:optimizeQuality;shape-rendering:geometricPrecision;text-rendering:geometricPrecision"
         d="m 652.68166,318.19805 c -14.64984,-12.43469 -30.1019,-24.22761 -49.69729,-32.70586 9.19388,-20.43315 26.90355,-35.75683 44.1875,-51.33594 7.83214,30.33479 7.9493,57.68313 5.50979,84.0418 z"
         id="path24"
         sodipodi:nodetypes="cccc" /><path
         id="path25"
         style="clip-rule:evenodd;fill:#dcd8ef;fill-opacity:1;fill-rule:evenodd;stroke-width:2;image-rendering:optimizeQuality;shape-rendering:geometricPrecision;text-rendering:geometricPrecision"
         d="m 647.17188,234.15625 c -17.28396,15.57911 -34.99362,30.90279 -44.1875,51.33594 6.79837,2.94142 13.08883,6.28827 19.02929,9.91601 l 0.0488,-0.1582 c 8.4409,-21.1079 16.88137,-40.65133 25.32227,-60.21875 -0.0743,-0.29289 -0.13713,-0.58155 -0.21289,-0.875 z" /><path
         style="fill:url(#radialGradient32);fill-opacity:1;fill-rule:evenodd;stroke-width:2"
         d="m 283.30675,461.74073 c 27.83103,-3.45309 41.76873,-58.79639 58.00485,-87.52656 -16.37463,-51.11797 4.14928,-111.16194 17.19154,-121.99802 l 57.98135,36.95209 c 5.26576,-3.0546 11.27747,-5.77322 17.10455,-8.49104 -22.15822,-42.5947 -59.74779,-69.05659 -90.07878,-87.86906 -27.97821,46.56633 -54.41094,118.61464 -22.59427,198.92902 -17.7244,37.29798 -11.38636,43.85242 -37.60924,70.00357 z"
         id="path29"
         sodipodi:nodetypes="cccccccc" /><path
         style="clip-rule:evenodd;fill:#fdfef9;fill-opacity:1;fill-rule:evenodd;stroke-width:2;image-rendering:optimizeQuality;shape-rendering:geometricPrecision;text-rendering:geometricPrecision"
         d="m 362.20312,235.89062 c 12.79943,9.61099 39.19108,31.7976 54.34375,53.25 -18.77951,10.34145 -34.23334,22.2884 -46.1776,35.92963 -10.04137,-21.40182 -22.32573,-48.33987 -8.16615,-89.17963 z"
         id="path27"
         sodipodi:nodetypes="cccc" /><path
         id="path28"
         style="clip-rule:evenodd;fill:#dcd8ef;fill-opacity:1;fill-rule:evenodd;stroke-width:2;image-rendering:optimizeQuality;shape-rendering:geometricPrecision;text-rendering:geometricPrecision"
         d="m 362.20312,235.89062 c -14.15958,40.83976 -1.87535,67.77787 8.16602,89.17969 3.23392,-3.69338 6.7337,-7.25834 10.47852,-10.70508 -22.19724,-23.09243 -22.38663,-61.32946 -18.51954,-76.74023 6.9466,22.00909 25.49071,36.30972 39.83204,60.19141 4.55628,-3.00754 9.34806,-5.90111 14.38672,-8.67579 -15.15267,-21.4524 -41.54433,-43.63901 -54.34376,-53.25 z" /></g></g></svg>
