<svg width="55" height="55" viewBox="0 0 56 55" fill="none" xmlns="http://www.w3.org/2000/svg">
<path d="M50.8798 23.0117H49.0003V22.9166H28.0003V32.0833H41.1872C39.2633 37.4194 34.0938 41.2499 28.0003 41.2499C20.2688 41.2499 14.0003 35.0934 14.0003 27.4999C14.0003 19.9065 20.2688 13.7499 28.0003 13.7499C31.5692 13.7499 34.816 15.0722 37.2882 17.2321L43.888 10.7501C39.7207 6.93565 34.1463 4.58325 28.0003 4.58325C15.1145 4.58325 4.66699 14.8442 4.66699 27.4999C4.66699 40.1556 15.1145 50.4166 28.0003 50.4166C40.8862 50.4166 51.3337 40.1556 51.3337 27.4999C51.3337 25.9634 51.1727 24.4635 50.8798 23.0117Z" fill="#FFC107"/>
<path d="M7.35742 16.8334L15.0236 22.3551C17.0979 17.3112 22.1216 13.7499 28.0004 13.7499C31.5693 13.7499 34.8161 15.0722 37.2883 17.2321L43.8881 10.7501C39.7208 6.93565 34.1464 4.58325 28.0004 4.58325C19.0381 4.58325 11.2658 9.55273 7.35742 16.8334Z" fill="#FF3D00"/>
<path d="M28 50.4167C34.027 50.4167 39.5034 48.1514 43.6439 44.4676L36.4222 38.4657C34.0795 40.2085 31.1675 41.2501 28 41.2501C21.931 41.2501 16.7779 37.4493 14.8365 32.1453L7.22754 37.9031C11.0892 45.3246 18.9315 50.4167 28 50.4167Z" fill="#4CAF50"/>
<path d="M50.8795 23.0119H49V22.9167H28V32.0834H41.1868C40.2628 34.6466 38.584 36.857 36.4187 38.4669L36.4222 38.4646L43.6438 44.4664C43.1328 44.9225 51.3333 38.9584 51.3333 27.5001C51.3333 25.9635 51.1723 24.4636 50.8795 23.0119Z" fill="#1976D2"/>
</svg>
