<?xml version="1.0" encoding="UTF-8" standalone="no"?>
<svg
   width="110"
   height="110"
   viewBox="0 0 110 110"
   fill="none"
   version="1.1"
   id="svg7"
   sodipodi:docname="logo2.svg"
   inkscape:version="1.4 (86a8ad7, 2024-10-11)"
   xmlns:inkscape="http://www.inkscape.org/namespaces/inkscape"
   xmlns:sodipodi="http://sodipodi.sourceforge.net/DTD/sodipodi-0.dtd"
   xmlns="http://www.w3.org/2000/svg"
   xmlns:svg="http://www.w3.org/2000/svg">
  <defs
     id="defs7" />
  <sodipodi:namedview
     id="namedview7"
     pagecolor="#505050"
     bordercolor="#eeeeee"
     borderopacity="1"
     inkscape:showpageshadow="0"
     inkscape:pageopacity="0"
     inkscape:pagecheckerboard="0"
     inkscape:deskcolor="#505050"
     inkscape:zoom="4"
     inkscape:cx="-57.625"
     inkscape:cy="42.125"
     inkscape:window-width="1920"
     inkscape:window-height="1057"
     inkscape:window-x="-8"
     inkscape:window-y="-8"
     inkscape:window-maximized="1"
     inkscape:current-layer="svg7" />
  <g
     id="g9"
     transform="translate(0,57.131512)">
    <g
       id="g8"
       transform="translate(41.609706)">
      <path
         d="M -41.278128,35.239824 V 14.366338 c 1.46337,-0.386548 2.871468,-0.648837 4.224413,-0.786928 1.352884,-0.165637 2.540193,-0.248456 3.561743,-0.248456 1.794705,0 3.340893,0.303669 4.638566,0.911126 1.297431,0.57979 2.291737,1.546188 2.982194,2.899073 0.71764,1.325339 1.076461,3.119983 1.076461,5.384053 v 12.714618 h -3.23059 V 23.187877 c 0,-1.987949 -0.248275,-3.465152 -0.745246,-4.43149 -0.496973,-0.994004 -1.173415,-1.656614 -2.029388,-1.987948 -0.828307,-0.331335 -1.767038,-0.497032 -2.816255,-0.497032 -0.690276,0 -1.421931,0.04144 -2.195025,0.124318 -0.773095,0.08282 -1.518583,0.193243 -2.236465,0.331274 v 18.512885 z"
         fill="#ffffff"
         id="path1"
         style="stroke-width:0.604075" />
      <path
         d="m -8.601331,35.736917 c -2.512345,0 -4.583112,-0.496972 -6.2123,-1.490917 -1.601402,-1.02161 -2.788408,-2.388328 -3.561623,-4.100154 -0.773215,-1.711826 -1.159823,-3.589349 -1.159823,-5.63257 0,-1.90507 0.289957,-3.561743 0.869868,-4.96984 0.579911,-1.408158 1.353126,-2.5678 2.319041,-3.478925 0.994306,-0.938792 2.08466,-1.629068 3.27227,-2.070828 1.187006,-0.469365 2.4018,-0.704048 3.644381,-0.704048 1.849675,0 3.437183,0.40032 4.762522,1.201021 1.325339,0.773094 2.347433,1.974176 3.065073,3.603183 0.717641,1.6014 1.076461,3.630788 1.076461,6.088163 0,0.110484 0,0.276122 0,0.496971 0,0.22085 0,0.427927 0,0.621231 h -15.779026 c 0.221091,2.457314 1.007596,4.321064 2.360723,5.59113 1.38031,1.242461 3.327241,1.86369 5.839586,1.86369 1.408097,0 2.58121,-0.110425 3.520545,-0.331334 0.938731,-0.22091 1.614691,-0.427926 2.029086,-0.621231 l 0.455472,2.733437 c -0.331033,0.248516 -1.118141,0.510806 -2.360723,0.786927 -1.214793,0.276062 -2.595103,0.414094 -4.141533,0.414094 z m -7.578716,-13.294408 h 12.217403 c 0,-1.352885 -0.248275,-2.498753 -0.745428,-3.437484 -0.469366,-0.938793 -1.118142,-1.656674 -1.946931,-2.153647 -0.828187,-0.524638 -1.780811,-0.786867 -2.857272,-0.786867 -1.242581,0 -2.346829,0.317502 -3.313348,0.952504 -0.938731,0.607457 -1.698053,1.408158 -2.277964,2.402162 -0.579912,0.966338 -0.938732,1.974115 -1.07646,3.023332 z"
         fill="#ffffff"
         id="path2"
         style="stroke-width:0.604075" />
      <path
         d="m 3.119524,35.240005 c 0.717639,-1.270127 1.532536,-2.554027 2.44348,-3.851698 0.911548,-1.297673 1.863569,-2.56774 2.857876,-3.81026 0.993702,-1.270067 1.960217,-2.498693 2.898947,-3.685941 L 3.533918,13.786667 h 3.809897 l 6.088462,7.744717 5.59071,-7.744717 h 3.6033 l -7.16492,9.815484 c 0.93873,1.214853 1.87746,2.457314 2.81619,3.72738 0.93873,1.270127 1.85028,2.567799 2.73344,3.893138 0.91155,1.325278 1.72584,2.664391 2.44348,4.017336 h -3.76882 c -0.35882,-0.773094 -0.88316,-1.68428 -1.57362,-2.733437 -0.69045,-1.076822 -1.44977,-2.181251 -2.27796,-3.313287 -0.82818,-1.159642 -1.64247,-2.222691 -2.44348,-3.189029 -0.80039,0.938732 -1.65637,1.987949 -2.56792,3.14765 -0.883154,1.159581 -1.711341,2.277844 -2.484555,3.354666 -0.773216,1.076763 -1.367021,1.987949 -1.780812,2.733437 z"
         fill="#ffffff"
         id="path3"
         style="stroke-width:0.604075" />
      <path
         d="m 36.624507,35.695538 c -2.07077,0 -3.72714,-0.414154 -4.96972,-1.242461 -1.24258,-0.828306 -2.13963,-1.974175 -2.69236,-3.437485 -0.55213,-1.490976 -0.82819,-3.189028 -0.82819,-5.094158 V 13.786667 h 3.23059 v 11.223641 c 0,1.877463 0.19331,3.396046 0.57992,4.555687 0.38661,1.132036 0.9937,1.94657 1.82189,2.443602 0.82878,0.496971 1.90525,0.745427 3.23058,0.745427 0.96652,0 1.89136,-0.05521 2.77512,-0.165576 0.88315,-0.110486 1.42199,-0.207138 1.6153,-0.289896 V 13.786667 h 3.22999 v 20.873487 c -0.77262,0.193304 -1.83579,0.414154 -3.18892,0.662669 -1.32533,0.248456 -2.92673,0.372715 -4.8042,0.372715 z"
         fill="#ffffff"
         id="path4"
         style="stroke-width:0.604075" />
      <path
         d="m 58.781957,35.736977 c -0.88377,0 -1.75363,-0.04143 -2.609,-0.124258 -0.82879,-0.08282 -1.64309,-0.22091 -2.44349,-0.414154 -0.80099,-0.220909 -1.61529,-0.510805 -2.44408,-0.869746 l 0.70436,-3.064771 c 1.07646,0.524639 2.20909,0.938792 3.3961,1.242461 1.21479,0.303728 2.51234,0.455592 3.89326,0.455592 1.82189,0 3.18891,-0.234683 4.09985,-0.704048 0.91095,-0.496973 1.36702,-1.256294 1.36702,-2.277844 0,-0.745488 -0.28995,-1.366779 -0.86986,-1.863751 -0.55213,-0.524578 -1.28426,-0.98017 -2.19521,-1.366718 -0.88376,-0.386547 -1.83579,-0.745488 -2.85787,-1.076762 -0.85538,-0.303729 -1.71135,-0.635063 -2.56732,-0.994005 -0.85597,-0.386546 -1.62919,-0.814534 -2.31965,-1.283899 -0.68985,-0.496972 -1.24258,-1.090596 -1.65637,-1.780871 -0.4144,-0.690276 -0.62159,-1.50481 -0.62159,-2.443541 0,-1.132036 0.30385,-2.139813 0.91155,-3.023332 0.63488,-0.883519 1.5875,-1.573795 2.85727,-2.070767 1.27037,-0.524639 2.87176,-0.786928 4.8048,-0.786928 1.13143,0 2.31905,0.08282 3.56163,0.248517 1.24258,0.165637 2.29125,0.35894 3.14723,0.57979 l -0.57992,3.023392 c -0.33103,-0.22091 -0.84208,-0.400381 -1.53193,-0.538412 -0.66267,-0.165697 -1.3942,-0.289955 -2.19521,-0.372774 -0.801,-0.110485 -1.5875,-0.165698 -2.36072,-0.165698 -1.76692,0 -3.12004,0.234684 -4.05878,0.70405 -0.91094,0.469365 -1.36641,1.256293 -1.36641,2.360722 0,0.57979 0.23438,1.090596 0.70374,1.532355 0.46937,0.414154 1.09096,0.786928 1.86358,1.118263 0.77322,0.303668 1.61529,0.62123 2.52684,0.952504 0.93873,0.35894 1.87746,0.745488 2.81619,1.159642 0.96591,0.386546 1.84968,0.84214 2.65068,1.366718 0.8004,0.524578 1.43528,1.159641 1.90465,1.905129 0.49715,0.717882 0.74542,1.573795 0.74542,2.5678 0,1.325279 -0.34493,2.44354 -1.03537,3.354666 -0.66268,0.883519 -1.68417,1.546188 -3.06448,1.987948 -1.35312,0.441759 -3.07836,0.66273 -5.17691,0.66273 z"
         fill="#ffffff"
         id="path5"
         style="stroke-width:0.604075" />
    </g>
    <g
       id="g7"
       transform="translate(127.08601,-40)">
      <path
         d="M -89,33.749874 V 1.6520285 c 2.076294,-0.5505231 4.173821,-0.95307826 6.292522,-1.2076539 C -80.546463,0.14809426 -78.55489,0 -76.732821,0 c 2.966126,0 5.423742,0.50845239 7.372909,1.5254145 1.991512,0.9745894 3.495777,2.5212613 4.512737,4.6399494 1.016959,2.1186698 1.525529,4.8516831 1.525529,8.1991611 v 19.385893 h -5.84762 V 15.445033 c 0,-2.839029 -0.338946,-4.978841 -1.01696,-6.4195584 -0.635909,-1.4406569 -1.546913,-2.4152704 -2.733074,-2.9237198 -1.144056,-0.5505473 -2.500021,-0.8257696 -4.067836,-0.8257696 -0.974614,0 -1.991512,0.063362 -3.050817,0.1901506 -1.059365,0.084746 -2.097527,0.211879 -3.114462,0.3813701 V 33.750418 Z"
         fill="#6521b4"
         id="path6"
         style="stroke-width:0.604075" />
      <path
         d="m -67.693392,50.00775 c -3.305132,0 -5.911049,-0.635547 -7.81787,-1.90676 -1.906761,-1.271215 -3.283929,-3.050878 -4.131385,-5.339052 -0.80511,-2.288172 -1.207665,-4.915353 -1.207665,-7.881478 V 16.257392 h 5.847499 v 17.288365 c 0,2.669526 0.254256,4.851684 0.762766,6.546656 0.550492,1.652566 1.397948,2.839029 2.542367,3.559388 1.186462,0.720358 2.711871,1.080507 4.576346,1.080507 1.271153,0 2.500022,-0.06373 3.686485,-0.19119 1.228808,-0.126795 2.033918,-0.253952 2.41527,-0.381412 V 16.256908 h 5.84756 v 32.097853 c -1.271213,0.338946 -2.966186,0.699156 -5.084856,1.080507 -2.118669,0.381654 -4.597549,0.572482 -7.436517,0.572482 z"
         fill="#6521b4"
         id="path7"
         style="stroke-width:0.604075" />
    </g>
  </g>
</svg>
