<?xml version="1.0" encoding="UTF-8" standalone="no"?>
<svg
   width="60"
   height="60"
   viewBox="0 0 50 50"
   fill="none"
   version="1.1"
   id="svg7"
   sodipodi:docname="logo.svg"
   inkscape:version="1.4 (86a8ad7, 2024-10-11)"
   xmlns:inkscape="http://www.inkscape.org/namespaces/inkscape"
   xmlns:sodipodi="http://sodipodi.sourceforge.net/DTD/sodipodi-0.dtd"
   xmlns="http://www.w3.org/2000/svg"
   xmlns:svg="http://www.w3.org/2000/svg">
  <defs
     id="defs7" />
  <sodipodi:namedview
     id="namedview7"
     pagecolor="#505050"
     bordercolor="#eeeeee"
     borderopacity="1"
     inkscape:showpageshadow="0"
     inkscape:pageopacity="0"
     inkscape:pagecheckerboard="0"
     inkscape:deskcolor="#505050"
     inkscape:zoom="1.4142136"
     inkscape:cx="-309.35922"
     inkscape:cy="43.487067"
     inkscape:window-width="1920"
     inkscape:window-height="1057"
     inkscape:window-x="-8"
     inkscape:window-y="-8"
     inkscape:window-maximized="1"
     inkscape:current-layer="svg7" />
  <g
     id="g7"
     transform="translate(76.08601,-25.003875)">
    <path
       d="M -68,58.749874 V 26.652028 c 2.076294,-0.550523 4.173821,-0.953078 6.292522,-1.207653 C -59.546463,25.148094 -57.55489,25 -55.732821,25 c 2.966126,0 5.423742,0.508452 7.372909,1.525414 1.991512,0.97459 3.495777,2.521262 4.512737,4.63995 1.016959,2.11867 1.525529,4.851683 1.525529,8.199161 v 19.385893 h -5.84762 V 40.445033 c 0,-2.839029 -0.338946,-4.978841 -1.01696,-6.419558 -0.635909,-1.440657 -1.546913,-2.415271 -2.733074,-2.92372 -1.144056,-0.550548 -2.500021,-0.82577 -4.067836,-0.82577 -0.974614,0 -1.991512,0.06336 -3.050817,0.190151 -1.059365,0.08475 -2.097527,0.211879 -3.114462,0.38137 v 27.902912 z"
       fill="#6521b4"
       id="path6"
       style="stroke-width:0.604075" />
    <path
       d="m -46.693392,75.00775 c -3.305132,0 -5.911049,-0.635547 -7.81787,-1.90676 -1.906761,-1.271215 -3.283929,-3.050878 -4.131385,-5.339052 -0.80511,-2.288172 -1.207665,-4.915353 -1.207665,-7.881478 V 41.257392 h 5.847499 v 17.288365 c 0,2.669526 0.254256,4.851684 0.762766,6.546656 0.550492,1.652566 1.397948,2.839029 2.542367,3.559388 1.186462,0.720358 2.711871,1.080507 4.576346,1.080507 1.271153,0 2.500022,-0.06373 3.686485,-0.19119 1.228808,-0.126795 2.033918,-0.253952 2.41527,-0.381412 V 41.256908 h 5.84756 v 32.097853 c -1.271213,0.338946 -2.966186,0.699156 -5.084856,1.080507 -2.118669,0.381654 -4.597549,0.572482 -7.436517,0.572482 z"
       fill="#6521b4"
       id="path7"
       style="stroke-width:0.604075" />
  </g>
</svg>
