<svg width="40" height="40" viewBox="0 0 50 50" fill="none" xmlns="http://www.w3.org/2000/svg">
<path d="M47.8734 41.1892L38.1688 4.96572C37.5687 2.78135 35.6 1.20322 33.2641 1.20322C32.7969 1.20322 32.3437 1.26572 31.9141 1.38447L31.95 1.37666L27.425 2.58916C27.0656 2.69072 26.7547 2.81572 26.4594 2.96885L26.4875 2.95635C25.5594 1.86572 24.1875 1.1751 22.6547 1.17041H17.9688C16.7812 1.1751 15.6922 1.59229 14.8344 2.28447L14.8438 2.27666C13.9953 1.59229 12.9062 1.1751 11.7203 1.17041H7.03125C4.22812 1.17354 1.95625 3.44541 1.95312 6.24854V43.7485C1.95625 46.5517 4.22812 48.8235 7.03125 48.8267H11.7188C12.9062 48.822 13.9953 48.4063 14.8531 47.7142L14.8438 47.722C15.6922 48.4063 16.7812 48.822 17.9672 48.8282H22.6531C25.4563 48.8251 27.7281 46.5532 27.7312 43.7501V23.3548L33.5391 45.0313C34.1359 47.2157 36.1031 48.7938 38.4391 48.7938C38.9078 48.7938 39.3609 48.7298 39.7922 48.611L39.7562 48.6188L44.2844 47.4079C46.4688 46.8048 48.0453 44.836 48.0453 42.5001C48.0453 42.0345 47.9828 41.5829 47.8656 41.1532L47.8734 41.1892ZM29.7281 15.7204L36.5187 13.9001L41.9781 34.2782L35.1891 36.097L29.7281 15.7204ZM28.4359 6.3626L32.9594 5.15166C33.0469 5.12822 33.1484 5.11572 33.2531 5.11572C33.7937 5.11572 34.2516 5.47666 34.3953 5.97041L34.3969 5.97822L35.5094 10.1282L28.7187 11.9485L27.7312 8.26572V6.94072C27.8781 6.66104 28.1281 6.45322 28.4281 6.3626H28.4359ZM17.9688 5.07822H22.6531C23.2969 5.0876 23.8156 5.60635 23.825 6.24854V10.5454L16.7969 10.547V6.2501C16.8062 5.60635 17.325 5.0876 17.9672 5.07822H17.9688ZM12.8906 35.547H5.85938V14.4532L12.8906 14.4517V35.547ZM16.7969 14.4532L23.825 14.4517V35.547H16.7969V14.4532ZM7.03125 5.07822H11.7188C12.3625 5.0876 12.8813 5.60635 12.8906 6.24854V10.5454L5.85938 10.547V6.2501C5.86875 5.60635 6.38906 5.0876 7.03125 5.07822ZM11.7188 44.922H7.03125C6.3875 44.9126 5.86875 44.3938 5.85938 43.7517V39.4532H12.8906V43.7501C12.8813 44.3938 12.3609 44.9126 11.7188 44.922ZM22.6531 44.922H17.9688C17.325 44.9126 16.8062 44.3938 16.7969 43.7517V39.4532H23.825V43.7501C23.8156 44.3938 23.2953 44.9126 22.6531 44.922ZM43.2703 43.6376L38.7453 44.8485C38.6562 44.872 38.5547 44.886 38.45 44.886C38.2328 44.886 38.0297 44.8282 37.8547 44.7267L37.8609 44.7298C37.5938 44.5751 37.3953 44.3251 37.3141 44.0267L37.3125 44.0188L36.2016 39.8704L42.9906 38.0517L44.1031 42.2032C44.1266 42.2907 44.1391 42.3907 44.1391 42.4938C44.1391 43.036 43.7766 43.4923 43.2812 43.6345L43.2734 43.636L43.2703 43.6376Z" fill="white"/>
</svg>
