<?xml version="1.0" encoding="UTF-8" standalone="no"?>
<svg
   width="40"
   height="40"
   viewBox="0 0 50 50"
   fill="none"
   version="1.1"
   id="svg1"
   sodipodi:docname="teacher.svg"
   inkscape:version="1.4 (86a8ad7, 2024-10-11)"
   xmlns:inkscape="http://www.inkscape.org/namespaces/inkscape"
   xmlns:sodipodi="http://sodipodi.sourceforge.net/DTD/sodipodi-0.dtd"
   xmlns="http://www.w3.org/2000/svg"
   xmlns:svg="http://www.w3.org/2000/svg">
  <defs
     id="defs1" />
  <sodipodi:namedview
     id="namedview1"
     pagecolor="#505050"
     bordercolor="#eeeeee"
     borderopacity="1"
     inkscape:showpageshadow="0"
     inkscape:pageopacity="0"
     inkscape:pagecheckerboard="0"
     inkscape:deskcolor="#505050"
     inkscape:zoom="14.741379"
     inkscape:cx="29"
     inkscape:cy="29"
     inkscape:window-width="1920"
     inkscape:window-height="1057"
     inkscape:window-x="-8"
     inkscape:window-y="-8"
     inkscape:window-maximized="1"
     inkscape:current-layer="svg1" />
  <path
     fill-rule="evenodd"
     clip-rule="evenodd"
     d="m 22.481895,16.622561 c 0.019,0.3851 0.0526,0.773 0.1015,1.1633 4.32,0.54 8.3549,-0.7759 11.4124,-3.2558 0.5675,-0.0449 1.1293,-0.0532 1.6798,-0.0232 3.0371,0.165 5.5432,1.4562 6.9588,3.9672 1.075,1.9066 1.699,4.0009 1.699,6.5618 0,5.0308 -2.3043,10.2764 -5.6782,15.2545 -2.547,3.7577 -7.6038,5.0851 -12.2963,3.4413 l -0.5599,-0.1962 c -0.5172,-0.1813 -1.0808,-0.1813 -1.5979,0 l -0.56,0.1962 c -4.6927,1.6438 -9.7495,0.3164 -12.2963,-3.4413 -3.374,-4.9781 -5.67816,-10.2237 -5.67816,-15.2545 0,-2.4863 0.58806,-4.5327 1.59676,-6.3935 1.384,-2.5534 3.8936,-3.8834 6.9596,-4.0778 2.7057,-0.1715 5.6979,0.5716 8.2589,2.058 z m 4.9348,-11.9206003 v -1.41609 c 0,-1.33468 -1.082,-2.41667004 -2.4167,-2.41667004 -1.3347,0 -2.4166,1.08199004 -2.4166,2.41667004 v 7.9988903 c -2.7667,-1.166 -5.7816,-1.7267003 -8.6663,-1.5438003 -4.3321,0.2746003 -8.55426,2.2651003 -10.90297,6.5981003 -1.3761,2.5387 -2.18082,5.3734 -2.18082,8.6968 0,6.4334 2.90517,12.6467 6.51059,17.9662 3.9614,5.845 11.3666,7.4714 17.6561,5.3728 6.2894,2.0986 13.6948,0.4719 17.6562,-5.3728 3.6052,-5.3195 6.5105,-11.533 6.5105,-17.9662 0,-3.4285 -0.8565,-6.3367 -2.3219,-8.9356 -2.045,-3.627 -5.4032,-5.565 -9.013,-6.2030003 1.421,-2.6449 2.0774,-5.75464 1.6682,-9.02806004 -4.6438,-0.58048 -8.9581,0.98363004 -12.0833,3.83276004 z"
     fill="#ffffff"
     id="path1" />
</svg>
